<svg width="283" height="151" viewBox="0 0 283 151" fill="none" xmlns="http://www.w3.org/2000/svg">
<path d="M38.524 9.95C30.924 12.45 25.024 16.6 20.824 22.4C16.724 28.1 14.674 35.2 14.674 43.7C14.674 47.5 15.024 50.1 15.724 51.5C16.424 52.9 16.774 53.75 16.774 54.05C6.07401 54.05 0.724012 49.5 0.724012 40.4C0.724012 34.2 3.07401 28 7.77401 21.8C12.574 15.5 18.674 10.4 26.074 6.5C33.574 2.5 41.024 0.5 48.424 0.5C52.124 0.5 55.924 1.2 59.824 2.6L56.374 81.65L89.374 2.6H110.974L95.224 113H73.624L83.224 45.65L55.024 113H34.474L37.474 45.35L12.424 113H0.424011L38.524 9.95Z" fill="black"/>
<path d="M122.39 113.9C114.99 113.9 109.24 112 105.14 108.2C101.04 104.3 98.9904 98.25 98.9904 90.05C98.9904 83.15 100.34 75.55 103.04 67.25C105.74 58.95 110.14 51.8 116.24 45.8C122.34 39.7 130.09 36.65 139.49 36.65C150.49 36.65 155.99 41.45 155.99 51.05C155.99 56.65 154.39 61.8 151.19 66.5C147.99 71.2 143.74 75 138.44 77.9C133.14 80.7 127.49 82.3 121.49 82.7C121.29 85.7 121.19 87.7 121.19 88.7C121.19 93.6 122.04 96.95 123.74 98.75C125.44 100.45 128.19 101.3 131.99 101.3C137.39 101.3 141.99 100.05 145.79 97.55C149.69 95.05 153.94 91.25 158.54 86.15H163.64C152.54 104.65 138.79 113.9 122.39 113.9ZM122.69 75.5C126.39 75.3 129.89 74 133.19 71.6C136.59 69.2 139.29 66.15 141.29 62.45C143.39 58.75 144.44 54.85 144.44 50.75C144.44 46.65 143.19 44.6 140.69 44.6C137.09 44.6 133.54 47.75 130.04 54.05C126.64 60.35 124.19 67.5 122.69 75.5Z" fill="black"/>
<path d="M174.859 29.75C171.559 29.75 168.759 28.6 166.459 26.3C164.159 24 163.009 21.2 163.009 17.9C163.009 14.6 164.159 11.8 166.459 9.5C168.759 7.1 171.559 5.9 174.859 5.9C178.159 5.9 180.959 7.1 183.259 9.5C185.659 11.8 186.859 14.6 186.859 17.9C186.859 21.2 185.659 24 183.259 26.3C180.959 28.6 178.159 29.75 174.859 29.75ZM137.509 150.5C132.709 150.5 128.709 149.25 125.509 146.75C122.309 144.25 120.709 140.65 120.709 135.95C120.709 126.25 128.909 118.8 145.309 113.6L161.359 38H182.959L168.109 107.6C172.909 106 176.759 103.6 179.659 100.4C182.559 97.2 185.009 92.45 187.009 86.15H193.309C190.609 95.05 186.959 101.6 182.359 105.8C177.759 109.9 172.559 112.7 166.759 114.2L164.509 125C162.509 134.7 159.059 141.35 154.159 144.95C149.259 148.65 143.709 150.5 137.509 150.5ZM134.059 138.8C135.759 138.8 137.409 137.65 139.009 135.35C140.609 133.05 141.859 129.75 142.759 125.45L143.659 121.1C133.859 124.7 128.959 128.95 128.959 133.85C128.959 135.15 129.409 136.3 130.309 137.3C131.209 138.3 132.459 138.8 134.059 138.8Z" fill="black"/>
<path d="M204.594 29.9C201.294 29.9 198.494 28.75 196.194 26.45C193.894 24.15 192.744 21.35 192.744 18.05C192.744 14.75 193.894 11.95 196.194 9.65001C198.494 7.25 201.294 6.05 204.594 6.05C207.894 6.05 210.694 7.25 212.994 9.65001C215.394 11.95 216.594 14.75 216.594 18.05C216.594 21.35 215.394 24.15 212.994 26.45C210.694 28.75 207.894 29.9 204.594 29.9ZM194.394 113.9C189.594 113.9 185.694 112.4 182.694 109.4C179.794 106.4 178.344 101.9 178.344 95.9C178.344 93.4 178.744 90.15 179.544 86.15L189.744 38H211.344L200.544 89C200.144 90.5 199.944 92.1 199.944 93.8C199.944 95.8 200.394 97.25 201.294 98.15C202.294 98.95 203.894 99.35 206.094 99.35C207.894 99.35 209.494 99.05 210.894 98.45C210.494 103.45 208.694 107.3 205.494 110C202.394 112.6 198.694 113.9 194.394 113.9Z" fill="black"/>
<path d="M281.901 84.65C282.041 85.21 282.111 85.7467 282.111 86.26C282.111 87.8933 281.481 89.4333 280.221 90.88C279.008 92.3267 277.468 93.3533 275.601 93.96C274.808 94.1933 273.874 94.31 272.801 94.31C272.381 98.2767 271.191 101.777 269.231 104.81C267.318 107.797 264.798 110.13 261.671 111.81C258.544 113.443 255.044 114.26 251.171 114.26C246.738 114.26 243.238 113.14 240.671 110.9C238.151 108.66 236.891 105.627 236.891 101.8C236.891 99.2333 237.451 96.7133 238.571 94.24C239.738 91.72 241.301 89.55 243.261 87.73C245.268 85.91 247.461 84.65 249.841 83.95V83.67C248.394 82.4567 247.368 81.1733 246.761 79.82C246.154 78.4667 245.851 76.7867 245.851 74.78C245.851 72.26 246.528 69.9033 247.881 67.71C249.281 65.47 251.148 63.6967 253.481 62.39C255.861 61.0367 258.428 60.36 261.181 60.36C264.354 60.36 266.968 61.27 269.021 63.09C271.074 64.91 272.101 67.22 272.101 70.02C272.101 71.9333 271.611 73.4967 270.631 74.71C269.651 75.9233 268.368 76.53 266.781 76.53C265.008 76.53 263.584 75.8067 262.511 74.36C263.351 73.8467 264.028 73.0533 264.541 71.98C265.101 70.9067 265.381 69.7633 265.381 68.55C265.381 67.2433 265.054 66.2167 264.401 65.47C263.748 64.7233 262.861 64.35 261.741 64.35C260.528 64.35 259.361 64.8167 258.241 65.75C257.121 66.6833 256.211 67.9433 255.511 69.53C254.858 71.07 254.531 72.7033 254.531 74.43C254.531 76.7633 255.161 78.7467 256.421 80.38C257.681 81.9667 259.408 83.04 261.601 83.6V83.88C259.408 84.3 257.331 85.3267 255.371 86.96C253.458 88.5467 251.918 90.5067 250.751 92.84C249.631 95.1267 249.071 97.46 249.071 99.84C249.071 102.267 249.678 104.157 250.891 105.51C252.104 106.863 253.784 107.54 255.931 107.54C257.938 107.54 259.921 106.98 261.881 105.86C263.841 104.74 265.521 103.177 266.921 101.17C268.321 99.1633 269.254 96.9 269.721 94.38C268.694 94.38 267.621 94.52 266.501 94.8C263.934 95.64 262.091 96.8767 260.971 98.51L260.761 98.58C260.248 97.9267 259.828 97.0867 259.501 96.06C259.314 95.5 259.221 94.8933 259.221 94.24C259.221 92.6533 259.781 91.23 260.901 89.97C262.021 88.71 263.421 87.8233 265.101 87.31C266.408 86.9367 268.204 86.6567 270.491 86.47C272.031 86.3767 273.361 86.2133 274.481 85.98C275.554 85.6533 276.628 85.1167 277.701 84.37C278.821 83.5767 279.661 82.8067 280.221 82.06H280.361C281.061 82.76 281.574 83.6233 281.901 84.65Z" fill="black"/>
</svg>
